<?xml version="1.0" encoding="UTF-8" standalone="no"?>
<svg
   xmlns:dc="http://purl.org/dc/elements/1.1/"
   xmlns:cc="http://creativecommons.org/ns#"
   xmlns:rdf="http://www.w3.org/1999/02/22-rdf-syntax-ns#"
   xmlns:svg="http://www.w3.org/2000/svg"
   xmlns="http://www.w3.org/2000/svg"
   xmlns:xlink="http://www.w3.org/1999/xlink"
   xmlns:sodipodi="http://sodipodi.sourceforge.net/DTD/sodipodi-0.dtd"
   xmlns:inkscape="http://www.inkscape.org/namespaces/inkscape"
   inkscape:version="1.0beta2 (2b71d25, 2019-12-03)"
   sodipodi:docname="Logo_Teresa_Rojo-12.svg"
   id="svg934"
   viewBox="0 0 150 130"
   height="130pt"
   width="150pt"
   version="1.1">
  <metadata
     id="metadata940">
    <rdf:RDF>
      <cc:Work
         rdf:about="">
        <dc:format>image/svg+xml</dc:format>
        <dc:type
           rdf:resource="http://purl.org/dc/dcmitype/StillImage" />
        <dc:title></dc:title>
      </cc:Work>
    </rdf:RDF>
  </metadata>
  <defs
     id="defs938">
    <clipPath
       id="cp69">
      <path
         inkscape:connector-curvature="0"
         transform="matrix(1,0,0,-1,0,300)"
         d="M 0,0 H 500 V 300 H 0 Z"
         id="path833" />
    </clipPath>
    <clipPath
       id="cp70">
      <path
         inkscape:connector-curvature="0"
         transform="matrix(1,0,0,-1,0,300)"
         d="M 0,300 H 500 V 0 H 0 Z"
         id="path840" />
    </clipPath>
    <clipPath
       id="cp72">
      <path
         inkscape:connector-curvature="0"
         transform="matrix(1,0,0,-1,0,300)"
         d="M 0,0 H 500 V 300 H 0 Z"
         id="path852" />
    </clipPath>
  </defs>
  <sodipodi:namedview
     inkscape:current-layer="svg934"
     inkscape:window-maximized="0"
     inkscape:window-y="23"
     inkscape:window-x="0"
     inkscape:cy="229.85075"
     inkscape:cx="216.4016"
     inkscape:zoom="1.1055"
     showgrid="false"
     id="namedview936"
     inkscape:window-height="678"
     inkscape:window-width="1288"
     inkscape:pageshadow="2"
     inkscape:pageopacity="0"
     guidetolerance="10"
     gridtolerance="10"
     objecttolerance="10"
     borderopacity="1"
     inkscape:document-rotation="0"
     bordercolor="#666666"
     pagecolor="#ffffff" />
  <g
     transform="translate(-173.67708,-80.732702)"
     clip-path="url(#cp70)"
     id="g850">
    <clipPath
       id="cp71">
      <path
         transform="matrix(1,0,0,-1,0,300)"
         d="M 0,0 H 500 V 300 H 0 Z"
         id="path843"
         inkscape:connector-curvature="0" />
    </clipPath>
    <g
       clip-path="url(#cp71)"
       id="g848">
      <path
         transform="matrix(1,0,0,-1,0,300)"
         d="m 300.0434,210.1716 c -0.292,0.162 -0.757,0.243 -1.399,0.243 h -0.988 v -2.375 h 1.046 c 0.489,0 0.856,0.05 1.1,0.148 0.452,0.177 0.677,0.519 0.677,1.023 0,0.478 -0.145,0.798 -0.436,0.961 m -1.248,1.033 c 0.813,0 1.411,-0.079 1.791,-0.236 0.678,-0.282 1.016,-0.837 1.016,-1.661 0,-0.586 -0.214,-1.019 -0.64,-1.294 -0.226,-0.148 -0.542,-0.253 -0.946,-0.32 0.511,-0.08 0.885,-0.293 1.123,-0.639 0.238,-0.349 0.356,-0.687 0.356,-1.017 v -0.479 c 0,-0.152 0.007,-0.314 0.018,-0.488 0.009,-0.172 0.029,-0.286 0.056,-0.34 l 0.042,-0.082 h -1.084 c -0.005,0.021 -0.01,0.044 -0.016,0.065 -0.005,0.021 -0.01,0.046 -0.015,0.073 l -0.025,0.211 v 0.518 c 0,0.758 -0.206,1.257 -0.618,1.5 -0.245,0.14 -0.673,0.211 -1.285,0.211 h -0.912 v -2.578 h -1.154 v 6.556 z m -3.513,0.333 c -0.999,-1.004 -1.497,-2.215 -1.497,-3.636 0,-1.431 0.496,-2.652 1.489,-3.661 0.997,-1.007 2.208,-1.511 3.635,-1.511 1.426,0 2.64,0.504 3.635,1.511 0.999,1.009 1.497,2.23 1.497,3.661 0,1.421 -0.498,2.632 -1.497,3.636 -1.002,1.009 -2.215,1.513 -3.635,1.513 -1.414,0 -2.624,-0.504 -3.627,-1.513 m 7.858,-7.865 c -1.167,-1.172 -2.576,-1.757 -4.231,-1.757 -1.653,0 -3.061,0.585 -4.222,1.757 -1.155,1.165 -1.732,2.578 -1.732,4.237 0,1.643 0.584,3.049 1.75,4.214 1.159,1.161 2.562,1.741 4.204,1.741 1.655,0 3.064,-0.58 4.231,-1.741 1.166,-1.161 1.749,-2.564 1.749,-4.214 0,-1.652 -0.583,-3.066 -1.749,-4.237"
         fill="#06ffcf"
         id="path846"
         inkscape:connector-curvature="0" />
    </g>
  </g>
  <g
     transform="translate(-173.67708,-80.732702)"
     clip-path="url(#cp72)"
     id="g930">
    <symbol
       id="font_49_8">
      <path
         d="m 0.21900001,0 c 0.005,0 0.009,0.004 0.009,0.009 v 0.526 c 0,0.005 -0.004,0.009 -0.009,0.009 H 0.123 C 0.118,0.544 0.114,0.54 0.114,0.535 V 0.009 C 0.114,0.004 0.118,0 0.123,0 h 0.096 m 0.11500002,0.569 c 0.005,0 0.009,0.004 0.009,0.009 v 0.096 c 0,0.005 -0.004,0.009 -0.009,0.009 H 0.008 C 0.004,0.683 0,0.679 0,0.674 V 0.578 C 0,0.573 0.004,0.569 0.008,0.569 Z"
         id="path855"
         inkscape:connector-curvature="0" />
    </symbol>
    <symbol
       id="font_49_6">
      <path
         d="m 0.343,0.012 -0.09,0.16500002 c -0.001,9.9998e-4 -0.001,0.004 -0.001,0.006 0.001,10e-4 0.002,0.003 0.004,0.004 0.052,0.024 0.085,0.076 0.085,0.133 v 0.217 c 0,0.0810001 -0.066,0.146 -0.14700001,0.146 h -0.047 c -0.004,0 -0.008,-0.004 -0.008,-0.009 V 0.578 c 0,-0.005 0.004,-0.009 0.008,-0.009 h 0.047 c 0.018,0 0.033,-0.014 0.033,-0.032 V 0.32 c 0,-0.018 -0.015,-0.033 -0.033,-0.033 h -0.047 c -0.004,0 -0.008,-0.004 -0.008,-0.009 V 0.15100001 c 0,-0.001 0,-0.003 0.001,-0.004 L 0.21700002,0.004 c 0.002,-0.002 0.004,-0.004 0.007,-0.004 H 0.337 c 0.002,0 0.005,0.002 0.006,0.004 10e-4,0.002 10e-4,0.005 0,0.008 M 0.10400002,0.683 H 0.007 C 0.003,0.683 0,0.68 0,0.676 V 0.008 C 0,0.004 0.003,0 0.007,0 h 0.09900001 c 0.004,0 0.007,0.004 0.007,0.008 v 0.666 c 0,0.002 -0.001,0.005 -0.002,0.006 -0.002,0.002 -0.004,0.003 -0.007,0.003 z"
         id="path858"
         inkscape:connector-curvature="0" />
    </symbol>
    <use
       xlink:href="#font_49_8"
       transform="matrix(127.3482,0,0,-127.3482,194.8455,173.01795)"
       fill="#06ffcf"
       id="use861"
       x="0"
       y="0"
       width="100%"
       height="100%" />
    <use
       xlink:href="#font_49_6"
       transform="matrix(127.3482,0,0,-127.3482,245.2754,173.01795)"
       fill="#06ffcf"
       id="use863"
       x="0"
       y="0"
       width="100%"
       height="100%" />
    <symbol
       id="font_4a_8">
      <path
         d="m 0.26500003,0.573 c 0,0.06 -0.049,0.10900007 -0.10900001,0.10900007 H 0.008 c -0.004,0 -0.008,-0.004 -0.008,-0.009 V 0.008 C 0,0.004 0.004,0 0.008,0 h 0.02 c 0.005,0 0.009,0.004 0.009,0.008 v 0.194 c 0,0.005 0.004,0.009 0.009,0.009 h 0.11000002 c 0.06,0 0.10900001,0.049 0.10900001,0.10900002 V 0.573 M 0.15600002,0.24900002 H 0.046 c -0.005,0 -0.009,0.004 -0.009,0.009 v 0.37700004 c 0,0.005 0.004,0.009 0.009,0.009 h 0.11000002 c 0.039,0 0.071,-0.032 0.071,-0.0710001 V 0.32000003 c 0,-0.039 -0.032,-0.071 -0.071,-0.071 z"
         id="path865"
         inkscape:connector-curvature="0" />
    </symbol>
    <symbol
       id="font_4a_3">
      <path
         d="M 0.26,0.038 H 0.046 c -0.005,0 -0.009,0.004 -0.009,0.009 v 0.27 c 0,0.005 0.004,0.009 0.009,0.009 h 0.15900003 c 0.005,0 0.009,0.004 0.009,0.008 v 0.02 c 0,0.005 -0.004,0.009 -0.009,0.009 H 0.046 c -0.005,0 -0.009,0.004 -0.009,0.009 v 0.26400006 c 0,0.002 0.001,0.005 0.003,0.006 0.002,0.002 0.004,0.003 0.006,0.003 H 0.26 c 0.002,0 0.005,0 0.006,0.002 0.002,0.002 0.003,0.004 0.003,0.006 v 0.0200001 c 0,0.003 -0.001,0.005 -0.003,0.007 -9.9997e-4,0.001 -0.003,0.002 -0.006,0.002 L 0.008,0.683 C 0.006,0.683 0.004,0.68200007 0.002,0.68 0,0.679 0,0.676 0,0.674 V 0.009 C 0,0.005 0.004,0.001 0.008,0 H 0.26 c 0.005,0 0.009,0.005 0.009,0.009 v 0.02 c 0,0.005 -0.004,0.009 -0.009,0.009 z"
         id="path868"
         inkscape:connector-curvature="0" />
    </symbol>
    <symbol
       id="font_4a_9">
      <path
         d="m 0.15500002,0.20700002 c -0.001,9.9998e-4 -0.001,0.002 0,0.002 0,0.001 0.001,0.001 0.001,0.001 0.06,0 0.10900001,0.049 0.10900001,0.10899999 v 0.254 c 0,0.06 -0.049,0.10900007 -0.10900001,0.10900007 H 0.008 c -0.004,0 -0.008,-0.004 -0.008,-0.009 V 0.008 C 0,0.004 0.004,0 0.008,0 h 0.02 c 0.005,0 0.009,0.004 0.009,0.008 v 0.193 c 0,0.005 0.004,0.009 0.009,0.009 h 0.05800002 c 0.004,0 0.007,-0.002 0.008,-0.004 l 0.11,-0.202 C 0.22400002,0.001 0.22700002,0 0.23,0 h 0.023 c 0.003,0 0.006,0.001 0.008,0.004 0.001,0.003 0.001,0.006 0,0.009 L 0.15500002,0.20700002 M 0.046,0.24800001 c -0.005,0 -0.009,0.004 -0.009,0.009 v 0.37800007 c 0,0.005 0.004,0.009 0.009,0.009 h 0.11000002 c 0.039,0 0.071,-0.032 0.071,-0.0710001 V 0.319 c 0,-0.039 -0.032,-0.071 -0.071,-0.071 z"
         id="path871"
         inkscape:connector-curvature="0" />
    </symbol>
    <symbol
       id="font_4a_a">
      <path
         d="m 0.19000001,0.334 -0.095,0.05 c -0.036,0.018 -0.058,0.054 -0.058,0.094 V 0.549 C 0.038,0.601 0.079,0.644 0.13100001,0.64500007 0.18500002,0.646 0.22900002,0.6 0.22900002,0.546 V 0.464 c 0,-0.005 0.004,-0.009 0.009,-0.009 h 0.02 c 0.005,0 0.009,0.004 0.009,0.009 v 0.085 c 0,0.0730001 -0.058,0.132 -0.131,0.134 C 0.061,0.684 0,0.621 0,0.546 V 0.478 C 0,0.424 0.029,0.375 0.07700001,0.35 L 0.172,0.3 C 0.207,0.282 0.229,0.245 0.229,0.206 V 0.134 C 0.229,0.082 0.187,0.04 0.135,0.038 0.081,0.037 0.03700001,0.08300001 0.03700001,0.13700001 v 0.086 c 0,0.005 -0.004,0.009 -0.009,0.009 h -0.02 c -0.004,0 -0.00800001,-0.004 -0.00800001,-0.009 V 0.134 C 0,0.06 0.05900001,0 0.13300002,0 0.20700002,0 0.267,0.06 0.267,0.134 v 0.072 c 0,0.054 -0.03,0.10300001 -0.077,0.128 z"
         id="path874"
         inkscape:connector-curvature="0" />
    </symbol>
    <symbol
       id="font_4a_7">
      <path
         d="M 0.133,0.683 H 0.131 C 0.05900001,0.683 0,0.624 0,0.551 V 0.13200002 C 0,0.06 0.05900001,0.001 0.13100001,0 H 0.133 C 0.206,0.001 0.26500003,0.06 0.26500003,0.13200002 V 0.551 c 0,0.073 -0.059,0.132 -0.13200003,0.132 M 0.227,0.13200002 C 0.22700003,0.08000001 0.18500002,0.038 0.133,0.038 H 0.131 c -0.052,0 -0.094,0.04200001 -0.094,0.09400002 V 0.551 c 0,0.0520001 0.042,0.0940001 0.09400001,0.0940001 h 0.002 c 0.052,0 0.094,-0.042 0.094,-0.0940001 z"
         id="path877"
         inkscape:connector-curvature="0" />
    </symbol>
    <symbol
       id="font_4a_6">
      <path
         d="m 0.256,0.68200007 h -0.02 c -0.005,0 -0.009,-0.004 -0.009,-0.009 V 0.13800001 c 0,-0.001 -9.9999e-4,-0.003 -0.003,-0.003 -0.002,0 -0.003,0.001 -0.004,0.002 L 0.04,0.67600008 c -0.001,0.003 -0.004,0.006 -0.008,0.006 H 0.008 c -0.004,0 -0.008,-0.004 -0.008,-0.009 V 0.008 C 0,0.004 0.004,0 0.009,0 h 0.02 c 0.004,0 0.008,0.004 0.008,0.008 v 0.53500007 c 0,0.002 0.002,0.003 0.003,0.003 0.002,0.001 0.004,0 0.004,-0.002 L 0.22400002,0.006 c 9.9999e-4,-0.004 0.005,-0.006 0.008,-0.006 h 0.024 c 0.005,0 0.009,0.004 0.009,0.008 v 0.66500006 c 0,0.005 -0.004,0.009 -0.009,0.009 z"
         id="path880"
         inkscape:connector-curvature="0" />
    </symbol>
    <symbol
       id="font_4a_2">
      <path
         d="M 0.301,0.01 0.169,0.675 C 0.168,0.679 0.164,0.682 0.16,0.682 H 0.141 C 0.137,0.682 0.133,0.679 0.133,0.675 L 9.999992e-4,0.01 C 0,0.008 9.999992e-4,0.005 0.003,0.003 0.004,0.001 0.007,0 0.009,0 H 0.03 c 0.004,0 0.008,0.003 0.009,0.007 l 0.02700001,0.14 c 9.9999e-4,0.004 0.005,0.007 0.009,0.007 h 0.15100001 c 0.004,0 0.008,-0.003 0.009,-0.007 L 0.263,0.007 C 0.264,0.003 0.26700003,0 0.272,0 h 0.02 C 0.295,0 0.297,0.001 0.299,0.003 0.3,0.005 0.301,0.008 0.301,0.01 M 0.215,0.192 H 0.086 C 0.084,0.192 0.081,0.193 0.079,0.195 0.078,0.197 0.077,0.2 0.078,0.202 l 0.067,0.342 c 0.001,0.003 0.003,0.005 0.006,0.005 0.002,0 0.004,-0.002 0.005,-0.005 L 0.224,0.202 C 0.224,0.2 0.224,0.197 0.222,0.195 0.22,0.193 0.218,0.192 0.215,0.192 Z"
         id="path883"
         inkscape:connector-curvature="0" />
    </symbol>
    <symbol
       id="font_4a_5">
      <path
         d="M 0.262,0.038 H 0.046 c -0.005,0 -0.009,0.004 -0.009,0.009 v 0.634 c 0,0.004 -0.004,0.008 -0.009,0.008 H 0.008 C 0.004,0.689 0,0.685 0,0.681 V 0.009 C 0,0.005 0.004,0.001 0.008,0 h 0.254 c 0.005,0 0.009,0.005 0.009,0.009 v 0.02 C 0.271,0.032 0.27,0.034 0.269,0.036 0.267,0.037 0.265,0.038 0.262,0.038 Z"
         id="path886"
         inkscape:connector-curvature="0" />
    </symbol>
    <symbol
       id="font_4a_1">
      <path
         d="M 0,0 Z"
         id="path889"
         inkscape:connector-curvature="0" />
    </symbol>
    <symbol
       id="font_4a_b">
      <path
         d="M 0.27100004,0.68200007 H 0.008 c -0.004,0 -0.008,-0.004 -0.008,-0.009 v -0.02 c 0,-0.005 0.004,-0.009 0.008,-0.009 h 0.104 c 0.005,0 0.009,-0.004 0.009,-0.009 V 0.008 C 0.12100001,0.004 0.125,0 0.13,0 h 0.02 c 0.005,0 0.009,0.004 0.009,0.008 v 0.62700007 c 0,0.005 0.004,0.009 0.008,0.009 h 0.10400004 c 0.005,0 0.009,0.004 0.009,0.009 v 0.02 c 0,0.002 -0.001,0.004 -0.003,0.006 -0.002,0.002 -0.004,0.003 -0.006,0.003 z"
         id="path892"
         inkscape:connector-curvature="0" />
    </symbol>
    <symbol
       id="font_4a_4">
      <path
         d="m 0.028,0 c 0.005,0 0.009,0.004 0.009,0.008 v 0.66500006 c 0,0.005 -0.004,0.009 -0.009,0.009 h -0.02 c -0.004,0 -0.008,-0.004 -0.008,-0.009 V 0.008 C 0,0.004 0.004,0 0.008,0 Z"
         id="path895"
         inkscape:connector-curvature="0" />
    </symbol>
    <use
       xlink:href="#font_4a_8"
       transform="matrix(29.3963,0,0,-29.3963,176.86142,210.3086)"
       fill="#ffffff"
       id="use898"
       x="0"
       y="0"
       width="100%"
       height="100%" />
    <use
       xlink:href="#font_4a_3"
       transform="matrix(29.3963,0,0,-29.3963,186.97376,210.338)"
       fill="#ffffff"
       id="use900"
       x="0"
       y="0"
       width="100%"
       height="100%" />
    <use
       xlink:href="#font_4a_9"
       transform="matrix(29.3963,0,0,-29.3963,196.64514,210.3086)"
       fill="#ffffff"
       id="use902"
       x="0"
       y="0"
       width="100%"
       height="100%" />
    <use
       xlink:href="#font_4a_a"
       transform="matrix(29.3963,0,0,-29.3963,206.61049,210.338)"
       fill="#ffffff"
       id="use904"
       x="0"
       y="0"
       width="100%"
       height="100%" />
    <use
       xlink:href="#font_4a_7"
       transform="matrix(29.3963,0,0,-29.3963,216.8404,210.338)"
       fill="#ffffff"
       id="use906"
       x="0"
       y="0"
       width="100%"
       height="100%" />
    <use
       xlink:href="#font_4a_6"
       transform="matrix(29.3963,0,0,-29.3963,227.42307,210.3086)"
       fill="#ffffff"
       id="use908"
       x="0"
       y="0"
       width="100%"
       height="100%" />
    <use
       xlink:href="#font_4a_2"
       transform="matrix(29.3963,0,0,-29.3963,237.03566,210.3086)"
       fill="#ffffff"
       id="use910"
       x="0"
       y="0"
       width="100%"
       height="100%" />
    <use
       xlink:href="#font_4a_5"
       transform="matrix(29.3963,0,0,-29.3963,247.73592,210.338)"
       fill="#ffffff"
       id="use912"
       x="0"
       y="0"
       width="100%"
       height="100%" />
    <use
       xlink:href="#font_4a_1"
       transform="matrix(29.3963,0,0,-29.3963,255.52594,210.3086)"
       fill="#ffffff"
       id="use914"
       x="0"
       y="0"
       width="100%"
       height="100%" />
    <use
       xlink:href="#font_4a_b"
       transform="matrix(29.3963,0,0,-29.3963,260.99366,210.3086)"
       fill="#ffffff"
       id="use916"
       x="0"
       y="0"
       width="100%"
       height="100%" />
    <use
       xlink:href="#font_4a_9"
       transform="matrix(29.3963,0,0,-29.3963,270.60624,210.3086)"
       fill="#ffffff"
       id="use918"
       x="0"
       y="0"
       width="100%"
       height="100%" />
    <use
       xlink:href="#font_4a_2"
       transform="matrix(29.3963,0,0,-29.3963,279.83668,210.3086)"
       fill="#ffffff"
       id="use920"
       x="0"
       y="0"
       width="100%"
       height="100%" />
    <use
       xlink:href="#font_4a_4"
       transform="matrix(29.3963,0,0,-29.3963,290.53694,210.3086)"
       fill="#ffffff"
       id="use922"
       x="0"
       y="0"
       width="100%"
       height="100%" />
    <use
       xlink:href="#font_4a_6"
       transform="matrix(29.3963,0,0,-29.3963,294.59364,210.3086)"
       fill="#ffffff"
       id="use924"
       x="0"
       y="0"
       width="100%"
       height="100%" />
    <use
       xlink:href="#font_4a_3"
       transform="matrix(29.3963,0,0,-29.3963,305.35267,210.338)"
       fill="#ffffff"
       id="use926"
       x="0"
       y="0"
       width="100%"
       height="100%" />
    <use
       xlink:href="#font_4a_9"
       transform="matrix(29.3963,0,0,-29.3963,315.02406,210.3086)"
       fill="#ffffff"
       id="use928"
       x="0"
       y="0"
       width="100%"
       height="100%" />
  </g>
</svg>
